General

Format                           : MPEG-4
Format profile                   : Base Media
Codec ID                         : isom
File size                        : 89.9 MiB
Duration                         : 4mn 11s
Overall bit rate                 : 2 994 Kbps
Encoded date                     : UTC 2012-03-07 16:12:07
Tagged date                      : UTC 2012-03-07 16:12:07

Video
ID                               : 1
Format                           : AVC
Format/Info                      : Advanced Video Codec
Format profile                   : High@L3.0
Format settings, CABAC           : Yes
Format settings, ReFrames        : 2 frames
Codec ID                         : avc1
Codec ID/Info                    : Advanced Video Coding
Duration                         : 4mn 11s
Bit rate mode                    : Variable
Bit rate                         : 2 970 Kbps
Maximum bit rate                 : 4 565 Kbps
Width                            : 720 pixels
Height                           : 480 pixels
Display aspect ratio             : 4:3
Original display aspect ratio    : 4:3
Frame rate mode                  : Constant
Frame rate                       : 25.000 fps
Standard                         : NTSC
Color space                      : YUV
Chroma subsampling               : 4:2:0
Bit depth                        : 8 bits
Scan type                        : Progressive
Bits/(Pixel*Frame)               : 0.344
Stream size                      : 87.7 MiB (98%)


Audio
ID                               : 2
Format                           : AAC
Format/Info                      : Advanced Audio Codec
Format profile                   : LC
Codec ID                         : 40
Duration                         : 4mn 11s
Bit rate mode                    : Variable
Bit rate                         : 66.15 Kbps
Maximum bit rate                 : 77.2 Kbps
Channel(s)                       : 2 channels
Channel positions                : Front: L R
Sampling rate                    : 48.0 KHz
Compression mode                 : Lossy
Stream size                      : 2.01 MiB (2%)

